<?xml version="1.0" standalone="no"?>
<!DOCTYPE svg PUBLIC "-//W3C//DTD SVG 20010904//EN"
 "http://www.w3.org/TR/2001/REC-SVG-20010904/DTD/svg10.dtd">
<svg version="1.0" xmlns="http://www.w3.org/2000/svg"
 width="357.000000pt" height="357.000000pt" viewBox="0 0 357.000000 357.000000"
 preserveAspectRatio="xMidYMid meet">
<metadata>
Created by potrace 1.14, written by Peter Selinger 2001-2017
</metadata>
<g transform="translate(0.000000,357.000000) scale(0.100000,-0.100000)"
fill="#000000" stroke="none">
<path d="M2300 3533 c-6 -16 -17 -44 -24 -63 -8 -19 -17 -43 -20 -52 -7 -23
-36 -23 -111 1 -33 10 -103 26 -155 36 -93 16 -140 34 -170 63 -12 12 -42 14
-170 9 -356 -13 -664 -119 -950 -326 -106 -76 -304 -279 -376 -386 -287 -421
-378 -897 -264 -1375 25 -105 57 -185 72 -182 9 1 18 -7 21 -20 4 -12 9 -19
13 -15 4 4 28 -34 54 -85 87 -175 176 -302 304 -432 145 -148 294 -256 476
-346 159 -80 156 -79 175 -34 27 64 29 84 11 84 -9 0 -19 7 -22 15 -4 8 -11
15 -16 15 -24 0 -204 92 -282 145 -106 70 -109 74 -85 104 l20 24 37 -29 c289
-229 691 -342 1057 -299 71 8 153 23 164 29 13 9 -1 67 -18 74 -9 3 -21 12
-27 20 -8 12 -20 12 -65 3 -112 -22 -308 -30 -409 -17 -186 26 -298 60 -457
138 -165 82 -314 206 -431 358 -23 30 -46 60 -50 66 -24 28 -114 203 -140 271
-69 179 -92 318 -88 528 3 167 16 245 62 390 104 328 354 625 659 782 227 117
445 167 690 157 55 -2 111 -6 125 -9 14 -2 43 -7 65 -9 91 -11 278 -75 390
-134 224 -118 430 -332 550 -572 48 -96 99 -246 121 -358 21 -106 24 -365 6
-467 -17 -93 -62 -256 -76 -274 -8 -11 -8 -15 2 -19 7 -2 18 -10 26 -17 7 -7
29 -20 48 -28 l35 -15 26 77 c56 163 72 275 71 486 -1 162 -17 271 -61 408
-37 120 -111 280 -146 318 -10 10 -15 19 -12 19 4 0 -13 27 -37 61 l-42 61 44
39 c25 21 50 39 57 39 12 0 92 -122 140 -215 43 -84 89 -205 116 -305 23 -82
25 -116 7 -105 -5 3 -20 3 -34 -1 -24 -6 -25 -9 -20 -53 3 -25 7 -57 10 -71 3
-14 7 -92 8 -175 4 -239 -40 -442 -144 -661 -53 -113 -136 -244 -201 -317
l-42 -49 30 -30 30 -30 -41 -41 c-269 -271 -616 -437 -991 -475 -79 -7 -211
-7 -311 1 l-51 4 -12 -104 c-13 -102 -11 -118 12 -118 7 -1 11 -6 10 -12 -8
-37 403 -36 577 1 14 3 39 8 55 12 124 24 340 103 465 171 69 37 210 129 247
160 12 10 37 29 55 43 115 87 308 311 401 467 99 165 191 399 221 568 3 17 11
59 18 95 14 72 17 397 5 502 -21 189 -97 431 -189 606 -119 224 -259 396 -473
580 -74 64 -260 185 -363 236 -73 37 -188 86 -200 86 -1 0 -7 -12 -12 -27z
m-774 -230 c-2 -11 -15 -17 -41 -20 -21 -2 -74 -13 -119 -24 -45 -11 -87 -21
-93 -21 -7 -1 -13 -4 -13 -8 0 -3 -8 -6 -19 -7 -58 -5 -298 -126 -401 -202
-68 -51 -86 -67 -188 -170 -57 -58 -102 -97 -100 -87 3 20 137 159 218 227 47
39 84 65 195 137 90 58 320 148 452 176 93 20 112 20 109 -1z"/>
</g>
</svg>
